<svg width="57" height="18" viewBox="0 0 57 18" fill="none" xmlns="http://www.w3.org/2000/svg">
<path d="M52.7488 0.995178H49.2567C48.1687 0.995178 47.3501 1.29569 46.8838 2.363L40.169 17.5852H44.9149C44.9149 17.5852 45.7025 15.5438 45.8786 15.0982H51.6608C51.8059 15.6785 52.21 17.5852 52.21 17.5852H56.4067L52.7488 0.995178ZM47.1843 11.7098C47.547 10.7461 48.9562 7.05712 48.9562 7.05712C48.9562 7.05712 49.35 6.08306 49.5676 5.48205L49.8681 6.91205C49.8681 6.91205 50.7489 10.8601 50.9251 11.7098H47.1843Z" fill="white"/>
<path d="M34.1486 5.59605C34.1382 6.37322 35.1122 6.89133 36.6977 7.65814C39.2986 8.83944 40.511 10.2798 40.4903 12.1657C40.4592 15.606 37.3712 17.8339 32.6149 17.8339C30.5943 17.8132 28.6358 17.3987 27.5789 16.9531L28.2213 13.233L28.8016 13.5025C30.2834 14.1138 31.2471 14.3729 33.0605 14.3729C34.3558 14.3729 35.7443 13.8651 35.7547 12.7564C35.7651 12.0207 35.1744 11.5025 33.4128 10.6839C31.6927 9.89639 29.4233 8.57002 29.4441 6.1867C29.4648 2.96403 32.6149 0.705048 37.0811 0.705048C38.8323 0.705048 40.2416 1.06773 41.1431 1.39932L40.5317 4.99503L40.1276 4.80851C39.2882 4.46656 38.2209 4.14533 36.7391 4.16605C34.9775 4.16605 34.1486 4.91214 34.1486 5.59605Z" fill="white"/>
<path d="M27.5789 0.984802L24.7396 17.5748H20.232L23.0609 0.984802H27.5789Z" fill="white"/>
<path d="M11.3411 9.52333C9.83862 5.68929 6.23253 2.49771 0.771606 1.17133L0.833778 0.829376H7.84906C8.80239 0.860463 9.55884 1.17133 9.82826 2.17648L11.3411 9.52333Z" fill="white"/>
<path d="M21.2268 0.995178L14.0975 17.5541H9.3205L5.26884 3.73082C8.18065 5.59604 10.6572 8.54928 11.5277 10.601L12.0043 12.3108L16.4394 0.995178H21.2268Z" fill="white"/>
</svg>
